<?xml version="1.0" ?><svg enable-background="new 0 0 32 32" id="Layer_3" version="1.1" viewBox="0 0 32 32" xml:space="preserve" xmlns="http://www.w3.org/2000/svg" xmlns:xlink="http://www.w3.org/1999/xlink"><g><path d="M25,11c0-4.963-4.037-9-9-9s-9,4.037-9,9c0,3.088,1.556,6.235,4,8.166V20h-1c-0.553,0-1,0.447-1,1v2c0,3.859,3.141,7,7,7   s7-3.141,7-7v-2c0-0.553-0.447-1-1-1h-1v-0.834C23.444,17.235,25,14.088,25,11z M21,23c0,2.757-2.243,5-5,5s-5-2.243-5-5v-1h1h8h1   V23z M13,20v-1.335c0-0.325-0.158-0.631-0.425-0.818C10.437,16.344,9,13.592,9,11c0-3.859,3.141-7,7-7s7,3.141,7,7   c0,2.592-1.437,5.344-3.575,6.847C19.158,18.034,19,18.34,19,18.665V20H13z"/><path d="M19,12c0-0.553-0.447-1-1-1h-3V9h3c0.553,0,1-0.447,1-1s-0.447-1-1-1h-1V6c0-0.553-0.447-1-1-1s-1,0.447-1,1v1h-1   c-0.553,0-1,0.447-1,1v4c0,0.553,0.447,1,1,1h3v2h-3c-0.553,0-1,0.447-1,1s0.447,1,1,1h1v1c0,0.553,0.447,1,1,1s1-0.447,1-1v-1h1   c0.553,0,1-0.447,1-1V12z"/></g></svg>