<?xml version="1.0" ?><svg data-name="Layer 1" id="Layer_1" viewBox="0 0 512 512" xmlns="http://www.w3.org/2000/svg"><path d="M419.37,346.56l-82.52-57.37L287.22,433.35l-10.4-90.84a27.14,27.14,0,0,0,6.76-17.85,27.43,27.43,0,0,0-27.44-27.43h-.28a27.3,27.3,0,0,0-20.68,45.28l-10.4,90.84L175.15,289.19,92.63,346.56l-7.32,112H426.69Zm-45.64,61.88H342.67a11,11,0,1,1,0-22.05h31.06a11,11,0,1,1,0,22.05Z"/><path d="M233.27,130.65a24.43,24.43,0,0,0,1.29,5.71,11.68,11.68,0,0,0,2.94,4.17,30.13,30.13,0,0,0,7.55,5.1,26.62,26.62,0,0,0,4.73,1.76V110.18a21.65,21.65,0,0,0-11,5.89A18.87,18.87,0,0,0,233.27,130.65Z"/><path d="M279.94,200.3a13.35,13.35,0,0,0,2.21-4.07,12,12,0,0,0,.76-3.23v-.17c.16-7.06-1.19-12.3-4-15.59a18.61,18.61,0,0,0-6.5-4.48V205.3a12,12,0,0,0,2.19-.93A17.66,17.66,0,0,0,279.94,200.3Z"/><path d="M256,262c47,0,85.18-44,85.18-98.24V101a47.59,47.59,0,0,0-47.59-47.59H170.82V163.72C170.82,218,209,262,256,262Zm-46.54-78.32c1.13-1.35,3.55-3.54,8.35-3.27a10.21,10.21,0,0,1,10.25,9c1,4.11,3.79,8.14,8.29,11.53,3.28,2.48,7.78,4.2,13.46,5.11l0-37.59c-9.78-1.58-17.95-5.08-24.35-10.43A39.2,39.2,0,0,1,212,132a36.58,36.58,0,0,1,2.33-16.81,38.73,38.73,0,0,1,9.21-13.59,42.44,42.44,0,0,1,14.71-9,56.94,56.94,0,0,1,11.54-2.93V86.29A11.09,11.09,0,0,1,253.21,78c5-4.23,10.63-3.94,15.08-.47a11.4,11.4,0,0,1,4.11,8.76v4.54a40.46,40.46,0,0,1,18.92,10.52c6.88,6.76,10.53,15.83,10.8,26.91A7.6,7.6,0,0,1,302,130c-1.12,5.25-4.66,8.74-9.47,9.33-5.68.51-10.31-3.17-11-9.18a30.5,30.5,0,0,0-1.45-7,17.27,17.27,0,0,0-3.08-5.56,26.92,26.92,0,0,0-4.56-4.36v38a46.31,46.31,0,0,1,13.48,5.62,38.07,38.07,0,0,1,11.51,10.84,36,36,0,0,1,5.32,13.44,45.53,45.53,0,0,1,.67,12.56c-.53,7.68-3.84,15-9.82,21.58-4.93,5.47-12,9.06-21.16,10.74v3.09a10.71,10.71,0,0,1-4.28,8.9,12.1,12.1,0,0,1-7.19,2.45,11.38,11.38,0,0,1-7.29-2.65,10.84,10.84,0,0,1-3.83-8.7v-2.72A60,60,0,0,1,225,217.92c-9.44-6-15.26-14.79-17.36-26.08A9.09,9.09,0,0,1,209.46,183.64Z"/></svg>